<svg xmlns="http://www.w3.org/2000/svg" class="wave" viewBox="0 0 320 26" aria-label="Audio waveform"><defs><linearGradient id="wg-Abundance-cosmic-drift" x1="0" y1="0" x2="0" y2="1"><stop offset="0%" stop-color="#46D99A"></stop><stop offset="100%" stop-color="#12A56E"></stop></linearGradient><linearGradient id="lg-Abundance-cosmic-drift" x1="0" y1="0" x2="0" y2="1"><stop offset="0%" stop-color="#FFFFFF"></stop><stop offset="55%" stop-color="#FFFFFF" stop-opacity=".95"></stop><stop offset="100%" stop-color="#46D99A"></stop></linearGradient></defs><g fill="url(#wg-Abundance-cosmic-drift)"><g><rect x="0.0" y="12.7" width="2.2" height="1.2" rx="1.1" fill-opacity=".38" style="opacity: 1;"></rect><rect x="0.0" y="12.5" width="2.2" height="1.0" rx="1.1" style="opacity: 1;"></rect><rect x="3.1" y="0.0" width="2.2" height="26.0" rx="1.1" fill-opacity=".38" style="opacity: 1;"></rect><rect x="3.1" y="2.6" width="2.2" height="20.8" rx="1.1" style="opacity: 1;"></rect><rect x="6.2" y="0.0" width="2.2" height="26.0" rx="1.1" fill-opacity=".38" style="opacity: 1;"></rect><rect x="6.2" y="2.6" width="2.2" height="20.8" rx="1.1" style="opacity: 1;"></rect><rect x="9.3" y="0.0" width="2.2" height="25.5" rx="1.1" fill-opacity=".38" style="opacity: 1;"></rect><rect x="9.3" y="2.4" width="2.2" height="20.8" rx="1.1" style="opacity: 1;"></rect><rect x="12.4" y="5.0" width="2.2" height="15.8" rx="1.1" fill-opacity=".38" style="opacity: 1;"></rect><rect x="12.4" y="5.3" width="2.2" height="15.3" rx="1.1" style="opacity: 1;"></rect><rect x="15.5" y="4.9" width="2.2" height="14.7" rx="1.1" fill-opacity=".38" style="opacity: 1;"></rect><rect x="15.5" y="6.2" width="2.2" height="12.3" rx="1.1" style="opacity: 1;"></rect><rect x="18.6" y="10.6" width="2.2" height="5.2" rx="1.1" fill-opacity=".38" style="opacity: 1;"></rect><rect x="18.6" y="11.2" width="2.2" height="3.9" rx="1.1" style="opacity: 1;"></rect><rect x="21.7" y="6.3" width="2.2" height="12.4" rx="1.1" fill-opacity=".38" style="opacity: 1;"></rect><rect x="21.7" y="10.1" width="2.2" height="5.4" rx="1.1" style="opacity: 1;"></rect><rect x="24.8" y="7.7" width="2.2" height="12.5" rx="1.1" fill-opacity=".38" style="opacity: 1;"></rect><rect x="24.8" y="8.6" width="2.2" height="10.4" rx="1.1" style="opacity: 1;"></rect><rect x="27.9" y="10.4" width="2.2" height="4.8" rx="1.1" fill-opacity=".38" style="opacity: 1;"></rect><rect x="27.9" y="11.2" width="2.2" height="3.4" rx="1.1" style="opacity: 1;"></rect><rect x="31.0" y="4.7" width="2.2" height="13.4" rx="1.1" fill-opacity=".38" style="opacity: 1;"></rect><rect x="31.0" y="5.2" width="2.2" height="12.7" rx="1.1" style="opacity: 1;"></rect><rect x="34.1" y="9.7" width="2.2" height="7.0" rx="1.1" fill-opacity=".38" style="opacity: 1;"></rect><rect x="34.1" y="10.6" width="2.2" height="5.2" rx="1.1" style="opacity: 1;"></rect><rect x="37.2" y="9.3" width="2.2" height="9.1" rx="1.1" fill-opacity=".38" style="opacity: 1;"></rect><rect x="37.2" y="9.9" width="2.2" height="7.6" rx="1.1" style="opacity: 1;"></rect><rect x="40.3" y="7.9" width="2.2" height="10.7" rx="1.1" fill-opacity=".38" style="opacity: 1;"></rect><rect x="40.3" y="9.2" width="2.2" height="7.9" rx="1.1" style="opacity: 1;"></rect><rect x="43.4" y="6.1" width="2.2" height="10.6" rx="1.1" fill-opacity=".38" style="opacity: 1;"></rect><rect x="43.4" y="9.6" width="2.2" height="5.3" rx="1.1" style="opacity: 1;"></rect><rect x="46.5" y="7.7" width="2.2" height="12.3" rx="1.1" fill-opacity=".38" style="opacity: 1;"></rect><rect x="46.5" y="8.7" width="2.2" height="10.0" rx="1.1" style="opacity: 1;"></rect><rect x="49.6" y="0.3" width="2.2" height="22.5" rx="1.1" fill-opacity=".38" style="opacity: 1;"></rect><rect x="49.6" y="1.5" width="2.2" height="20.3" rx="1.1" style="opacity: 1;"></rect><rect x="52.7" y="6.1" width="2.2" height="13.1" rx="1.1" fill-opacity=".38" style="opacity: 1;"></rect><rect x="52.7" y="6.4" width="2.2" height="12.6" rx="1.1" style="opacity: 1;"></rect><rect x="55.8" y="9.9" width="2.2" height="8.3" rx="1.1" fill-opacity=".38" style="opacity: 1;"></rect><rect x="55.8" y="11.1" width="2.2" height="5.2" rx="1.1" style="opacity: 1;"></rect><rect x="58.9" y="8.4" width="2.2" height="11.1" rx="1.1" fill-opacity=".38" style="opacity: 1;"></rect><rect x="58.9" y="9.5" width="2.2" height="8.6" rx="1.1" style="opacity: 1;"></rect><rect x="62.0" y="8.0" width="2.2" height="9.1" rx="1.1" fill-opacity=".38" style="opacity: 1;"></rect><rect x="62.0" y="9.7" width="2.2" height="6.1" rx="1.1" style="opacity: 1;"></rect><rect x="65.1" y="9.7" width="2.2" height="6.6" rx="1.1" fill-opacity=".38" style="opacity: 1;"></rect><rect x="65.1" y="11.0" width="2.2" height="4.0" rx="1.1" style="opacity: 1;"></rect><rect x="68.2" y="5.4" width="2.2" height="13.2" rx="1.1" fill-opacity=".38" style="opacity: 1;"></rect><rect x="68.2" y="5.7" width="2.2" height="12.7" rx="1.1" style="opacity: 1;"></rect><rect x="71.3" y="8.1" width="2.2" height="11.7" rx="1.1" fill-opacity=".38" style="opacity: 1;"></rect><rect x="71.3" y="9.1" width="2.2" height="9.2" rx="1.1" style="opacity: 1;"></rect><rect x="74.4" y="5.1" width="2.2" height="14.0" rx="1.1" fill-opacity=".38" style="opacity: 1;"></rect><rect x="74.4" y="7.0" width="2.2" height="10.6" rx="1.1" style="opacity: 1;"></rect><rect x="77.5" y="10.9" width="2.2" height="4.4" rx="1.1" fill-opacity=".38" style="opacity: 1;"></rect><rect x="77.5" y="12.0" width="2.2" height="2.2" rx="1.1" style="opacity: 1;"></rect><rect x="80.6" y="11.8" width="2.2" height="2.6" rx="1.1" fill-opacity=".38" style="opacity: 1;"></rect><rect x="80.6" y="12.3" width="2.2" height="1.5" rx="1.1" style="opacity: 1;"></rect><rect x="83.7" y="12.0" width="2.2" height="2.5" rx="1.1" fill-opacity=".38" style="opacity: 1;"></rect><rect x="83.7" y="12.4" width="2.2" height="1.5" rx="1.1" style="opacity: 1;"></rect><rect x="86.8" y="11.6" width="2.2" height="2.0" rx="1.1" fill-opacity=".38" style="opacity: 1;"></rect><rect x="86.8" y="12.2" width="2.2" height="1.1" rx="1.1" style="opacity: 1;"></rect><rect x="89.9" y="10.6" width="2.2" height="4.8" rx="1.1" fill-opacity=".38" style="opacity: 1;"></rect><rect x="89.9" y="11.2" width="2.2" height="3.6" rx="1.1" style="opacity: 1;"></rect><rect x="93.0" y="11.2" width="2.2" height="4.4" rx="1.1" fill-opacity=".38" style="opacity: 1;"></rect><rect x="93.0" y="11.8" width="2.2" height="2.9" rx="1.1" style="opacity: 1;"></rect><rect x="96.1" y="10.3" width="2.2" height="5.2" rx="1.1" fill-opacity=".38" style="opacity: 1;"></rect><rect x="96.1" y="10.8" width="2.2" height="4.1" rx="1.1" style="opacity: 1;"></rect><rect x="99.2" y="10.8" width="2.2" height="4.2" rx="1.1" fill-opacity=".38" style="opacity: 1;"></rect><rect x="99.2" y="11.5" width="2.2" height="3.0" rx="1.1" style="opacity: 1;"></rect><rect x="102.3" y="7.9" width="2.2" height="10.8" rx="1.1" fill-opacity=".38" style="opacity: 1;"></rect><rect x="102.3" y="9.3" width="2.2" height="7.8" rx="1.1" style="opacity: 1;"></rect><rect x="105.4" y="5.5" width="2.2" height="14.0" rx="1.1" fill-opacity=".38" style="opacity: 1;"></rect><rect x="105.4" y="8.0" width="2.2" height="9.3" rx="1.1" style="opacity: 1;"></rect><rect x="108.5" y="2.8" width="2.2" height="19.5" rx="1.1" fill-opacity=".38" style="opacity: 1;"></rect><rect x="108.5" y="5.9" width="2.2" height="13.6" rx="1.1" style="opacity: 1;"></rect><rect x="111.6" y="2.8" width="2.2" height="20.8" rx="1.1" fill-opacity=".38" style="opacity: 1;"></rect><rect x="111.6" y="5.3" width="2.2" height="15.8" rx="1.1" style="opacity: 1;"></rect><rect x="114.7" y="5.2" width="2.2" height="14.7" rx="1.1" fill-opacity=".38" style="opacity: 1;"></rect><rect x="114.7" y="6.2" width="2.2" height="12.9" rx="1.1" style="opacity: 1;"></rect><rect x="117.8" y="4.4" width="2.2" height="17.1" rx="1.1" fill-opacity=".38" style="opacity: 1;"></rect><rect x="117.8" y="5.9" width="2.2" height="14.2" rx="1.1" style="opacity: 1;"></rect><rect x="120.9" y="6.1" width="2.2" height="13.0" rx="1.1" fill-opacity=".38" style="opacity: 1;"></rect><rect x="120.9" y="7.0" width="2.2" height="11.3" rx="1.1" style="opacity: 1;"></rect><rect x="124.0" y="5.3" width="2.2" height="15.7" rx="1.1" fill-opacity=".38" style="opacity: 1;"></rect><rect x="124.0" y="6.1" width="2.2" height="14.2" rx="1.1" style="opacity: 1;"></rect><rect x="127.1" y="7.2" width="2.2" height="10.8" rx="1.1" fill-opacity=".38" style="opacity: 1;"></rect><rect x="127.1" y="8.3" width="2.2" height="8.8" rx="1.1" style="opacity: 1;"></rect><rect x="130.2" y="4.8" width="2.2" height="14.7" rx="1.1" fill-opacity=".38" style="opacity: 1;"></rect><rect x="130.2" y="6.9" width="2.2" height="10.9" rx="1.1" style="opacity: 1;"></rect><rect x="133.3" y="8.3" width="2.2" height="10.9" rx="1.1" fill-opacity=".38" style="opacity: 1;"></rect><rect x="133.3" y="9.3" width="2.2" height="8.7" rx="1.1" style="opacity: 1;"></rect><rect x="136.4" y="4.0" width="2.2" height="16.1" rx="1.1" fill-opacity=".38" style="opacity: 1;"></rect><rect x="136.4" y="5.6" width="2.2" height="13.3" rx="1.1" style="opacity: 1;"></rect><rect x="139.5" y="1.7" width="2.2" height="22.1" rx="1.1" fill-opacity=".38" style="opacity: 1;"></rect><rect x="139.5" y="3.9" width="2.2" height="17.7" rx="1.1" style="opacity: 1;"></rect><rect x="142.6" y="0.4" width="2.2" height="25.6" rx="1.1" fill-opacity=".38" style="opacity: 1;"></rect><rect x="142.6" y="2.8" width="2.2" height="20.7" rx="1.1" style="opacity: 1;"></rect><rect x="145.7" y="7.2" width="2.2" height="11.0" rx="1.1" fill-opacity=".38" style="opacity: 1;"></rect><rect x="145.7" y="8.0" width="2.2" height="9.5" rx="1.1" style="opacity: 1;"></rect><rect x="148.8" y="0.2" width="2.2" height="24.1" rx="1.1" fill-opacity=".38" style="opacity: 1;"></rect><rect x="148.8" y="2.9" width="2.2" height="19.0" rx="1.1" style="opacity: 1;"></rect><rect x="151.9" y="0.0" width="2.2" height="26.0" rx="1.1" fill-opacity=".38" style="opacity: 1;"></rect><rect x="151.9" y="2.6" width="2.2" height="20.8" rx="1.1" style="opacity: 1;"></rect><rect x="155.0" y="0.0" width="2.2" height="23.7" rx="1.1" fill-opacity=".38" style="opacity: 1;"></rect><rect x="155.0" y="1.7" width="2.2" height="20.6" rx="1.1" style="opacity: 1;"></rect><rect x="158.1" y="6.1" width="2.2" height="12.2" rx="1.1" fill-opacity=".38" style="opacity: 1;"></rect><rect x="158.1" y="7.8" width="2.2" height="9.3" rx="1.1" style="opacity: 1;"></rect><rect x="161.2" y="2.0" width="2.2" height="21.0" rx="1.1" fill-opacity=".38" style="opacity: 1;"></rect><rect x="161.2" y="4.5" width="2.2" height="16.2" rx="1.1" style="opacity: 1;"></rect><rect x="164.3" y="5.3" width="2.2" height="15.7" rx="1.1" fill-opacity=".38" style="opacity: 1;"></rect><rect x="164.3" y="6.9" width="2.2" height="12.3" rx="1.1" style="opacity: 1;"></rect><rect x="167.4" y="3.9" width="2.2" height="19.4" rx="1.1" fill-opacity=".38" style="opacity: 1;"></rect><rect x="167.4" y="6.8" width="2.2" height="13.2" rx="1.1" style="opacity: 1;"></rect><rect x="170.5" y="0.0" width="2.2" height="24.9" rx="1.1" fill-opacity=".38" style="opacity: 1;"></rect><rect x="170.5" y="2.5" width="2.2" height="20.1" rx="1.1" style="opacity: 1;"></rect><rect x="173.6" y="0.0" width="2.2" height="26.0" rx="1.1" fill-opacity=".38" style="opacity: 1;"></rect><rect x="173.6" y="2.6" width="2.2" height="20.8" rx="1.1" style="opacity: 1;"></rect><rect x="176.7" y="0.1" width="2.2" height="24.5" rx="1.1" fill-opacity=".38" style="opacity: 1;"></rect><rect x="176.7" y="4.6" width="2.2" height="15.9" rx="1.1" style="opacity: 1;"></rect><rect x="179.8" y="10.0" width="2.2" height="6.5" rx="1.1" fill-opacity=".38" style="opacity: 1;"></rect><rect x="179.8" y="10.4" width="2.2" height="5.5" rx="1.1" style="opacity: 1;"></rect><rect x="182.9" y="0.0" width="2.2" height="26.0" rx="1.1" fill-opacity=".38" style="opacity: 1;"></rect><rect x="182.9" y="2.6" width="2.2" height="20.8" rx="1.1" style="opacity: 1;"></rect><rect x="186.0" y="9.3" width="2.2" height="7.2" rx="1.1" fill-opacity=".38" style="opacity: 1;"></rect><rect x="186.0" y="10.2" width="2.2" height="5.5" rx="1.1" style="opacity: 1;"></rect><rect x="189.1" y="9.2" width="2.2" height="7.5" rx="1.1" fill-opacity=".38" style="opacity: 1;"></rect><rect x="189.1" y="9.9" width="2.2" height="6.2" rx="1.1" style="opacity: 1;"></rect><rect x="192.2" y="9.4" width="2.2" height="7.9" rx="1.1" fill-opacity=".38" style="opacity: 1;"></rect><rect x="192.2" y="10.0" width="2.2" height="6.6" rx="1.1" style="opacity: 1;"></rect><rect x="195.3" y="8.6" width="2.2" height="7.3" rx="1.1" fill-opacity=".38" style="opacity: 1;"></rect><rect x="195.3" y="9.5" width="2.2" height="5.9" rx="1.1" style="opacity: 1;"></rect><rect x="198.4" y="8.6" width="2.2" height="10.6" rx="1.1" fill-opacity=".38" style="opacity: 1;"></rect><rect x="198.4" y="9.7" width="2.2" height="8.0" rx="1.1" style="opacity: 1;"></rect><rect x="201.5" y="9.7" width="2.2" height="7.3" rx="1.1" fill-opacity=".38" style="opacity: 1;"></rect><rect x="201.5" y="10.2" width="2.2" height="6.1" rx="1.1" style="opacity: 1;"></rect><rect x="204.6" y="7.1" width="2.2" height="10.9" rx="1.1" fill-opacity=".38" style="opacity: 1;"></rect><rect x="204.6" y="8.7" width="2.2" height="7.9" rx="1.1" style="opacity: 1;"></rect><rect x="207.7" y="8.6" width="2.2" height="8.9" rx="1.1" fill-opacity=".38" style="opacity: 1;"></rect><rect x="207.7" y="8.9" width="2.2" height="8.2" rx="1.1" style="opacity: 1;"></rect><rect x="210.8" y="9.3" width="2.2" height="7.4" rx="1.1" fill-opacity=".38" style="opacity: 1;"></rect><rect x="210.8" y="10.1" width="2.2" height="5.9" rx="1.1" style="opacity: 1;"></rect><rect x="213.9" y="9.8" width="2.2" height="7.3" rx="1.1" fill-opacity=".38" style="opacity: 1;"></rect><rect x="213.9" y="10.6" width="2.2" height="5.4" rx="1.1" style="opacity: 1;"></rect><rect x="217.0" y="9.6" width="2.2" height="6.3" rx="1.1" fill-opacity=".38" style="opacity: 1;"></rect><rect x="217.0" y="10.4" width="2.2" height="4.8" rx="1.1" style="opacity: 1;"></rect><rect x="220.1" y="8.7" width="2.2" height="7.7" rx="1.1" fill-opacity=".38" style="opacity: 1;"></rect><rect x="220.1" y="10.0" width="2.2" height="5.3" rx="1.1" style="opacity: 1;"></rect><rect x="223.2" y="10.3" width="2.2" height="5.3" rx="1.1" fill-opacity=".38" style="opacity: 1;"></rect><rect x="223.2" y="10.8" width="2.2" height="4.2" rx="1.1" style="opacity: 1;"></rect><rect x="226.3" y="9.6" width="2.2" height="6.7" rx="1.1" fill-opacity=".38" style="opacity: 1;"></rect><rect x="226.3" y="10.5" width="2.2" height="5.0" rx="1.1" style="opacity: 1;"></rect><rect x="229.4" y="10.0" width="2.2" height="5.6" rx="1.1" fill-opacity=".38" style="opacity: 1;"></rect><rect x="229.4" y="10.6" width="2.2" height="4.4" rx="1.1" style="opacity: 1;"></rect><rect x="232.5" y="9.8" width="2.2" height="6.2" rx="1.1" fill-opacity=".38" style="opacity: 1;"></rect><rect x="232.5" y="10.3" width="2.2" height="5.4" rx="1.1" style="opacity: 1;"></rect><rect x="235.6" y="10.2" width="2.2" height="5.4" rx="1.1" fill-opacity=".38" style="opacity: 1;"></rect><rect x="235.6" y="10.8" width="2.2" height="4.2" rx="1.1" style="opacity: 1;"></rect><rect x="238.7" y="2.9" width="2.2" height="19.0" rx="1.1" fill-opacity=".38" style="opacity: 1;"></rect><rect x="238.7" y="5.9" width="2.2" height="13.4" rx="1.1" style="opacity: 1;"></rect><rect x="241.8" y="0.0" width="2.2" height="26.0" rx="1.1" fill-opacity=".38" style="opacity: 1;"></rect><rect x="241.8" y="2.6" width="2.2" height="20.8" rx="1.1" style="opacity: 1;"></rect><rect x="244.9" y="3.3" width="2.2" height="17.6" rx="1.1" fill-opacity=".38" style="opacity: 1;"></rect><rect x="244.9" y="5.9" width="2.2" height="12.9" rx="1.1" style="opacity: 1;"></rect><rect x="248.0" y="9.7" width="2.2" height="8.4" rx="1.1" fill-opacity=".38" style="opacity: 1;"></rect><rect x="248.0" y="10.2" width="2.2" height="7.1" rx="1.1" style="opacity: 1;"></rect><rect x="251.1" y="8.2" width="2.2" height="9.4" rx="1.1" fill-opacity=".38" style="opacity: 1;"></rect><rect x="251.1" y="9.3" width="2.2" height="7.2" rx="1.1" style="opacity: 1;"></rect><rect x="254.2" y="8.1" width="2.2" height="8.5" rx="1.1" fill-opacity=".38" style="opacity: 1;"></rect><rect x="254.2" y="8.9" width="2.2" height="7.1" rx="1.1" style="opacity: 1;"></rect><rect x="257.3" y="7.8" width="2.2" height="8.6" rx="1.1" fill-opacity=".38" style="opacity: 1;"></rect><rect x="257.3" y="9.0" width="2.2" height="6.6" rx="1.1" style="opacity: 1;"></rect><rect x="260.4" y="9.7" width="2.2" height="6.8" rx="1.1" fill-opacity=".38" style="opacity: 1;"></rect><rect x="260.4" y="10.2" width="2.2" height="5.8" rx="1.1" style="opacity: 1;"></rect><rect x="263.5" y="10.7" width="2.2" height="4.7" rx="1.1" fill-opacity=".38" style="opacity: 1;"></rect><rect x="263.5" y="11.3" width="2.2" height="3.6" rx="1.1" style="opacity: 1;"></rect><rect x="266.6" y="10.1" width="2.2" height="5.7" rx="1.1" fill-opacity=".38" style="opacity: 1;"></rect><rect x="266.6" y="10.7" width="2.2" height="4.5" rx="1.1" style="opacity: 1;"></rect><rect x="269.7" y="6.0" width="2.2" height="13.3" rx="1.1" fill-opacity=".38" style="opacity: 1;"></rect><rect x="269.7" y="7.6" width="2.2" height="10.3" rx="1.1" style="opacity: 1;"></rect><rect x="272.8" y="9.5" width="2.2" height="7.8" rx="1.1" fill-opacity=".38" style="opacity: 1;"></rect><rect x="272.8" y="10.1" width="2.2" height="6.5" rx="1.1" style="opacity: 1;"></rect><rect x="275.9" y="8.8" width="2.2" height="8.3" rx="1.1" fill-opacity=".38" style="opacity: 1;"></rect><rect x="275.9" y="9.3" width="2.2" height="7.3" rx="1.1" style="opacity: 1;"></rect><rect x="279.0" y="9.8" width="2.2" height="7.1" rx="1.1" fill-opacity=".38" style="opacity: 1;"></rect><rect x="279.0" y="10.6" width="2.2" height="5.4" rx="1.1" style="opacity: 1;"></rect><rect x="282.1" y="9.8" width="2.2" height="6.5" rx="1.1" fill-opacity=".38" style="opacity: 1;"></rect><rect x="282.1" y="10.4" width="2.2" height="5.2" rx="1.1" style="opacity: 1;"></rect><rect x="285.2" y="10.2" width="2.2" height="5.6" rx="1.1" fill-opacity=".38" style="opacity: 1;"></rect><rect x="285.2" y="11.0" width="2.2" height="3.9" rx="1.1" style="opacity: 1;"></rect><rect x="288.3" y="11.1" width="2.2" height="3.7" rx="1.1" fill-opacity=".38" style="opacity: 1;"></rect><rect x="288.3" y="12.0" width="2.2" height="2.1" rx="1.1" style="opacity: 1;"></rect><rect x="291.4" y="12.7" width="2.2" height="1.2" rx="1.1" fill-opacity=".38" style="opacity: 1;"></rect><rect x="291.4" y="12.4" width="2.2" height="1.0" rx="1.1" style="opacity: 1;"></rect><rect x="294.5" y="12.7" width="2.2" height="1.2" rx="1.1" fill-opacity=".38" style="opacity: 1;"></rect><rect x="294.5" y="12.5" width="2.2" height="1.0" rx="1.1" style="opacity: 1;"></rect><rect x="297.6" y="12.7" width="2.2" height="1.2" rx="1.1" fill-opacity=".38" style="opacity: 1;"></rect><rect x="297.6" y="12.5" width="2.2" height="1.0" rx="1.1" style="opacity: 1;"></rect><rect x="300.7" y="10.9" width="2.2" height="4.2" rx="1.1" fill-opacity=".38" style="opacity: 1;"></rect><rect x="300.7" y="12.0" width="2.2" height="2.1" rx="1.1" style="opacity: 1;"></rect><rect x="303.8" y="12.3" width="2.2" height="1.5" rx="1.1" fill-opacity=".38" style="opacity: 1;"></rect><rect x="303.8" y="12.5" width="2.2" height="1.0" rx="1.1" style="opacity: 1;"></rect><rect x="306.9" y="12.7" width="2.2" height="1.2" rx="1.1" fill-opacity=".38" style="opacity: 1;"></rect><rect x="306.9" y="12.5" width="2.2" height="1.0" rx="1.1" style="opacity: 1;"></rect><rect x="310.0" y="12.7" width="2.2" height="1.2" rx="1.1" fill-opacity=".38" style="opacity: 1;"></rect><rect x="310.0" y="12.5" width="2.2" height="1.0" rx="1.1" style="opacity: 1;"></rect><rect x="313.1" y="12.7" width="2.2" height="1.2" rx="1.1" fill-opacity=".38" style="opacity: 1;"></rect><rect x="313.1" y="12.5" width="2.2" height="1.0" rx="1.1" style="opacity: 1;"></rect><rect x="316.2" y="12.7" width="2.2" height="1.2" rx="1.1" fill-opacity=".38" style="opacity: 1;"></rect><rect x="316.2" y="12.5" width="2.2" height="1.0" rx="1.1" style="opacity: 1;"></rect></g></g></svg>