<?xml version="1.0" encoding="UTF-8"?><svg id="Layer_1" xmlns="http://www.w3.org/2000/svg" viewBox="0 0 781.48 136.41"><defs><style>.cls-1{fill:#121314;}</style></defs><path class="cls-1" d="M84.57,39.89l-56.07,88.25c16.91,0,44.31,1.1,52.95-19.3l3.31.55-4.41,27.02h-.92c-2.21-4.6-17.46-4.6-30.33-4.6H0L56.26,43.57c-16.91,0-42.47-.92-51.11,19.49l-3.13-.74,3.68-22.43h78.87Z"/><path class="cls-1" d="M134.38,38.06c27.58,0,45.96,18.38,45.96,47.8s-18.38,47.8-45.96,47.8-45.96-18.38-45.96-47.8,18.38-47.8,45.96-47.8ZM134.38,129.98c14.71,0,22.06-19.49,22.06-44.12s-7.35-44.12-22.06-44.12-22.06,19.49-22.06,44.12,7.35,44.12,22.06,44.12Z"/><path class="cls-1" d="M260.31,121.15c-9.93,6.8-23.16,12.5-35.48,12.5-52.58,0-50.01-94.31,12.5-94.31,8.27,0,15.81,1.66,22.98,6.25v-18.02c0-6.99-4.6-11.58-11.58-11.58h-.92v-3.68c6.25,0,22.43,0,32.72-12.32h1.84v108.84c0,6.99,4.6,11.58,11.58,11.58h.92v3.68c-6.25,0-22.43,0-32.72,12.32h-1.84v-15.26ZM260.31,51.29c-3.31-5.15-11.21-7.54-18.2-7.54-42.29,0-42.65,79.24-1.29,79.24,6.43,0,14.34-2.57,19.49-5.88V51.29Z"/><path class="cls-1" d="M308.47,62.87c0-6.99-4.6-11.58-11.58-11.58h-.92v-3.68c6.25,0,22.43,0,32.72-12.32h1.84v80.52c0,7.35,4.96,12.32,12.32,12.32h.18v3.68h-47.06v-3.68h.18c7.35,0,12.32-4.96,12.32-12.32v-52.95ZM319.68,6.07c7.17,0,11.95,4.78,11.95,11.95s-4.78,11.95-11.95,11.95-11.95-4.78-11.95-11.95,4.78-11.95,11.95-11.95Z"/><path class="cls-1" d="M404.62,113.43c-8.82,6.25-18.57,20.41-34.56,20.41-13.97,0-24.27-9.74-24.27-23.72,0-29.97,41.92-25.37,41.92-32.72,0-1.84-2.02-2.02-3.49-2.02-3.31,0-8.27.74-12.87.74-7.54,0-14.71-1.84-14.71-11.77,0-14.52,24.45-26.29,41-26.29s28.86,7.17,29.05,24.82v45.96c0,6.99,4.6,11.58,11.58,11.58h.92v3.68c-6.25,0-22.43,0-32.72,12.32h-1.84v-22.98ZM404.62,63.24c0-13.79-8.27-19.67-16.36-19.67-7.17,0-14.16,4.78-14.16,12.87,0,17.1,17.28,13.79,17.28,20.59,0,2.76-1.66,4.78-4.41,6.25-6.99,3.49-19.3,5.15-19.3,18.57,0,9.01,5.33,15.08,14.89,15.08,10.48,0,16.91-3.86,22.06-7.72v-45.96Z"/><path class="cls-1" d="M565.1,128.14h.18c7.35,0,12.32-4.96,12.32-12.32V43.57h-11.21v-3.68h11.21v-5.88c0-19.86,6.25-32.72,29.05-32.72,16.55,0,41,11.95,41,26.29,0,6.99-6.8,10.66-13.42,10.66-5.52,0-10.85-2.39-12.5-7.54,14.71-5.51,8.64-23.9-5.7-23.9-7.54,0-16.36,5.52-16.36,19.67v13.42h24.27v3.68h-24.27v72.25c.18,7.35,5.15,12.32,12.5,12.32h.18v3.68h-47.25v-3.68Z"/><path class="cls-1" d="M641.02,62.87c0-6.99-4.6-11.58-11.58-11.58h-.92v-3.68c6.25,0,22.43,0,32.72-12.32h1.84v21.88c8.09-10.29,18.94-19.12,31.44-19.12,13.97,0,19.3,7.72,20.96,19.67,8.27-10.66,19.12-19.67,31.8-19.67,17.28,0,21.51,11.77,21.51,28.86v48.9c0,7.17,5.15,12.32,12.5,12.32h.18v3.68h-47.25v-3.68h.18c7.35,0,12.32-4.96,12.32-12.32v-52.4c0-8.27-4.78-11.77-10.66-11.77-6.8,0-15.44,4.6-20.22,12.13v.74l.18,1.66v49.64c0,7.17,5.15,12.32,12.5,12.32h.18v3.68h-47.25v-3.68h.18c7.35,0,12.32-4.96,12.32-12.32v-52.4c0-8.27-4.78-11.77-10.66-11.77-6.99,0-15.44,4.6-20.22,12.13v52.03c0,7.35,4.96,12.32,12.32,12.32h.18v3.68h-47.06v-3.68h.18c7.35,0,12.32-4.96,12.32-12.32v-52.95Z"/><path class="cls-1" d="M519.53,120.08c-18.02,18.02-47.33,18.02-65.35,0s-18.02-47.33,0-65.35c2.36-2.36,5.01-4.49,7.87-6.31.7-.45,1.61-.35,2.2.24.59.59.69,1.5.24,2.2-10.66,16.72-8.2,39.04,5.83,53.08,14.04,14.04,36.36,16.49,53.08,5.83.7-.44,1.61-.35,2.2.24s.68,1.5.24,2.2c-1.82,2.86-3.95,5.51-6.31,7.87Z"/><path class="cls-1" d="M546.53,136.41c-.16,0-.31-.11-.35-.27l-.37-1.52c-1.45-5.89-6.29-10.33-12.29-11.26l-.11-.02c-.17-.03-.29-.17-.3-.34,0-.17.11-.32.27-.36l1.43-.35c5.31-1.31,9.49-5.41,10.91-10.7l.47-1.76c.04-.16.19-.27.36-.26.17,0,.31.13.34.29l.1.53c1.08,5.92,5.58,10.63,11.46,11.97l1.24.28c.17.04.28.19.28.36,0,.17-.14.31-.31.34h0c-6.48.92-11.62,5.94-12.7,12.4l-.06.36c-.03.17-.17.29-.34.3,0,0,0,0-.01,0Z"/></svg>